# xmcd CD database file
#
# Track frame offsets:
#	150
#	20806
#	39287
#	56587
#	77039
#	96547
#	122634
#	144996
#	170800
#	191499
#	215957
#
# Disc length: 3188 seconds
#
# Revision: 2
# Processed by: cddbd v1.5.1PL0 Copyright (c) Steve Scherf et al.
# Submitted via: CDex 1.51
#
DISCID=a20c720b
DTITLE=Richie Kotzen - Bi-Polar Blues
DYEAR=1999
DGENRE=Rock
TTITLE0=Gone Tomorrow Blues
TTITLE1=Tied To You
TTITLE2=They're Red Hot
TTITLE3=Tobacco Road
TTITLE4=Broken Man Blues
TTITLE5=The Thrill Is Gone
TTITLE6=From Four Till Late
TTITLE7=A Step Away
TTITLE8=Burn It Down
TTITLE9=No Kinda Hero
TTITLE10=Richie's Boogie
EXTD=This is one of the two albums that young guitarrist Richie\nKotzen (ex former of Poison and Mr. Big) edited in 1999 YEAR: 1999
EXTT0=
EXTT1=
EXTT2=
EXTT3=
EXTT4=
EXTT5=
EXTT6=
EXTT7=
EXTT8=
EXTT9=
EXTT10=
PLAYORDER=
